<svg width="1280" height="720" viewBox="0 0 1280 720" fill="none" xmlns="http://www.w3.org/2000/svg">
<rect width="1280" height="720" fill="#DBDBDB"/>
<path fill-rule="evenodd" clip-rule="evenodd" d="M560 280H720C731.046 280 740 288.954 740 300V420C740 431.046 731.046 440 720 440H560C548.954 440 540 431.046 540 420V300C540 288.954 548.954 280 560 280ZM631.7 392.2L670.6 366.2C672.696 364.834 673.96 362.502 673.96 360C673.96 357.498 672.696 355.166 670.6 353.8L631.7 327.8C629.403 326.248 626.438 326.089 623.988 327.387C621.539 328.685 620.005 331.228 620 334V386C620.005 388.772 621.539 391.315 623.988 392.613C626.438 393.911 629.403 393.752 631.7 392.2Z" fill="black" fill-opacity="0.15"/>
</svg>
